<mxfile host="app.diagrams.net" modified="2023-05-29T07:32:32.170Z" agent="Mozilla/5.0 (Windows NT 10.0; Win64; x64; rv:102.0) Gecko/20100101 Firefox/102.0" version="21.3.5" etag="KbZ3svINwem7j13rsGuN" type="github">
  <diagram name="Page-1" id="dgAsTY6MFN22v0dg3PtI">
    <mxGraphModel>
      <root>
        <mxCell id="0" />
        <mxCell id="1" parent="0" />
      </root>
    </mxGraphModel>
  </diagram>
</mxfile>
